<mxfile host="Electron" modified="2023-04-12T17:50:10.852Z" agent="Mozilla/5.0 (Windows NT 10.0; Win64; x64) AppleWebKit/537.36 (KHTML, like Gecko) draw.io/21.1.2 Chrome/106.0.5249.199 Electron/21.4.3 Safari/537.36" version="21.1.2" etag="mbFM0W3og16hjttphPcS" type="device">
  <diagram name="Page-1" id="S0qWBEfTinxwVEII3tIF">
    <mxGraphModel dx="1594" dy="958" grid="1" gridSize="10" guides="1" tooltips="1" connect="1" arrows="1" fold="1" page="1" pageScale="1" pageWidth="827" pageHeight="1169" background="none" math="0" shadow="0">
      <root>
        <mxCell id="0" />
        <mxCell id="1" parent="0" />
        <mxCell id="11" style="edgeStyle=none;html=1;entryX=0.65;entryY=-0.005;entryDx=0;entryDy=0;startArrow=none;startFill=0;endArrow=classic;endFill=1;exitX=0.653;exitY=1.004;exitDx=0;exitDy=0;exitPerimeter=0;entryPerimeter=0;fontFamily=Comic Sans MS;shadow=0;" parent="1" source="MyjZQWcwXhGRPd_88m82-1" target="MyjZQWcwXhGRPd_88m82-9" edge="1">
          <mxGeometry relative="1" as="geometry" />
        </mxCell>
        <mxCell id="17" style="edgeStyle=none;html=1;startArrow=none;startFill=0;endArrow=classic;endFill=1;exitX=0.304;exitY=0.019;exitDx=0;exitDy=0;exitPerimeter=0;fontFamily=Comic Sans MS;shadow=0;" parent="1" source="MyjZQWcwXhGRPd_88m82-1" edge="1">
          <mxGeometry relative="1" as="geometry">
            <mxPoint x="323" y="200" as="targetPoint" />
          </mxGeometry>
        </mxCell>
        <mxCell id="18" style="edgeStyle=none;html=1;startArrow=classic;startFill=1;endArrow=none;endFill=0;exitX=0.645;exitY=0.006;exitDx=0;exitDy=0;exitPerimeter=0;fontFamily=Comic Sans MS;shadow=0;" parent="1" source="MyjZQWcwXhGRPd_88m82-1" edge="1">
          <mxGeometry relative="1" as="geometry">
            <mxPoint x="360" y="200" as="targetPoint" />
          </mxGeometry>
        </mxCell>
        <mxCell id="36" style="edgeStyle=none;html=1;entryX=0;entryY=0;entryDx=0;entryDy=0;fontFamily=Comic Sans MS;fontSize=6;startArrow=none;startFill=0;endArrow=classic;endFill=1;shadow=0;" parent="1" source="MyjZQWcwXhGRPd_88m82-1" target="MyjZQWcwXhGRPd_88m82-23" edge="1">
          <mxGeometry relative="1" as="geometry" />
        </mxCell>
        <mxCell id="MyjZQWcwXhGRPd_88m82-1" value="API Gateway" style="rounded=1;whiteSpace=wrap;html=1;fontFamily=Comic Sans MS;fillColor=#dae8fc;strokeColor=#6c8ebf;fontColor=#374151;glass=0;shadow=1;" parent="1" vertex="1">
          <mxGeometry x="290" y="280" width="110" height="80" as="geometry" />
        </mxCell>
        <mxCell id="MyjZQWcwXhGRPd_88m82-4" value="/housing/api/v1/housings/1" style="text;html=1;strokeColor=none;fillColor=none;align=center;verticalAlign=middle;whiteSpace=wrap;rounded=0;fontFamily=Comic Sans MS;fontColor=#374151;fontSize=10;shadow=0;" parent="1" vertex="1">
          <mxGeometry x="381" y="230" width="150" height="20" as="geometry" />
        </mxCell>
        <mxCell id="10" style="edgeStyle=none;html=1;entryX=0.296;entryY=0.999;entryDx=0;entryDy=0;startArrow=none;startFill=0;endArrow=classic;endFill=1;exitX=0.3;exitY=0.016;exitDx=0;exitDy=0;entryPerimeter=0;exitPerimeter=0;fontFamily=Comic Sans MS;shadow=0;" parent="1" source="MyjZQWcwXhGRPd_88m82-9" target="MyjZQWcwXhGRPd_88m82-1" edge="1">
          <mxGeometry relative="1" as="geometry" />
        </mxCell>
        <mxCell id="35" style="edgeStyle=none;html=1;fontFamily=Comic Sans MS;fontSize=6;startArrow=none;startFill=0;endArrow=classic;endFill=1;entryX=0;entryY=0.5;entryDx=0;entryDy=0;exitX=0;exitY=0.5;exitDx=0;exitDy=0;shadow=0;" parent="1" source="MyjZQWcwXhGRPd_88m82-9" target="MyjZQWcwXhGRPd_88m82-1" edge="1">
          <mxGeometry relative="1" as="geometry">
            <mxPoint x="150.0000000000001" y="470" as="targetPoint" />
            <Array as="points">
              <mxPoint x="200" y="515" />
              <mxPoint x="200" y="420" />
              <mxPoint x="200" y="320" />
            </Array>
          </mxGeometry>
        </mxCell>
        <mxCell id="MyjZQWcwXhGRPd_88m82-9" value="Housing service" style="rounded=1;whiteSpace=wrap;html=1;fontFamily=Comic Sans MS;fillColor=#FAFAFA;fontColor=#374151;strokeColor=#d1d5db;gradientColor=none;shadow=1;glass=0;" parent="1" vertex="1">
          <mxGeometry x="290" y="480" width="110" height="70" as="geometry" />
        </mxCell>
        <mxCell id="MyjZQWcwXhGRPd_88m82-16" value="" style="sketch=0;outlineConnect=0;fontColor=#232F3E;gradientColor=none;fillColor=#232F3D;strokeColor=none;dashed=0;verticalLabelPosition=bottom;verticalAlign=top;align=center;html=1;fontSize=12;fontStyle=0;aspect=fixed;pointerEvents=1;shape=mxgraph.aws4.user;rounded=1;shadow=1;glass=0;fontFamily=Comic Sans MS;" parent="1" vertex="1">
          <mxGeometry x="320" y="150" width="42.5" height="42.5" as="geometry" />
        </mxCell>
        <mxCell id="5" style="edgeStyle=none;html=1;entryX=1;entryY=0.75;entryDx=0;entryDy=0;exitX=0;exitY=0.75;exitDx=0;exitDy=0;fontFamily=Comic Sans MS;shadow=0;" parent="1" edge="1">
          <mxGeometry relative="1" as="geometry">
            <mxPoint x="560" y="512.5" as="sourcePoint" />
            <mxPoint x="400" y="512.5" as="targetPoint" />
          </mxGeometry>
        </mxCell>
        <mxCell id="MyjZQWcwXhGRPd_88m82-23" value="Rental sevice" style="rounded=1;whiteSpace=wrap;html=1;fontFamily=Comic Sans MS;fillColor=#FAFAFA;fontColor=#374151;strokeColor=#d1d5db;gradientColor=none;shadow=1;glass=0;" parent="1" vertex="1">
          <mxGeometry x="560" y="480" width="120" height="70" as="geometry" />
        </mxCell>
        <mxCell id="MyjZQWcwXhGRPd_88m82-25" value="1" style="ellipse;whiteSpace=wrap;html=1;aspect=fixed;strokeWidth=2;fontFamily=Comic Sans MS;spacingBottom=4;spacingRight=2;strokeColor=#b85450;rounded=1;shadow=0;glass=0;fontSize=12;fillColor=#f8cecc;" parent="1" vertex="1">
          <mxGeometry x="371" y="230" width="20" height="20" as="geometry" />
        </mxCell>
        <mxCell id="MyjZQWcwXhGRPd_88m82-27" value="3" style="ellipse;whiteSpace=wrap;html=1;aspect=fixed;strokeWidth=2;fontFamily=Comic Sans MS;spacingBottom=4;spacingRight=2;strokeColor=#b85450;rounded=1;shadow=0;glass=0;fontSize=12;fillColor=#f8cecc;" parent="1" vertex="1">
          <mxGeometry x="371" y="410" width="20" height="20" as="geometry" />
        </mxCell>
        <mxCell id="MyjZQWcwXhGRPd_88m82-30" value="4" style="ellipse;whiteSpace=wrap;html=1;aspect=fixed;strokeWidth=2;fontFamily=Comic Sans MS;spacingBottom=4;spacingRight=2;strokeColor=#b85450;rounded=1;shadow=0;glass=0;fontSize=12;fillColor=#f8cecc;" parent="1" vertex="1">
          <mxGeometry x="170" y="410" width="20" height="20" as="geometry" />
        </mxCell>
        <mxCell id="MyjZQWcwXhGRPd_88m82-31" value="1" style="ellipse;whiteSpace=wrap;html=1;aspect=fixed;strokeWidth=2;fontFamily=Comic Sans MS;spacingBottom=4;spacingRight=2;strokeColor=#b85450;rounded=1;shadow=0;glass=0;fontSize=12;fillColor=#f8cecc;" parent="1" vertex="1">
          <mxGeometry x="62" y="587.5" width="27.5" height="27.5" as="geometry" />
        </mxCell>
        <mxCell id="MyjZQWcwXhGRPd_88m82-32" value="Demander les informations de logement ayant l&#39;id &#39;1&#39;" style="text;html=1;strokeColor=none;fillColor=none;align=left;verticalAlign=middle;whiteSpace=wrap;rounded=0;fontFamily=Comic Sans MS;fontColor=#374151;fontSize=10;" parent="1" vertex="1">
          <mxGeometry x="97" y="585" width="315" height="30" as="geometry" />
        </mxCell>
        <mxCell id="MyjZQWcwXhGRPd_88m82-33" value="2" style="ellipse;whiteSpace=wrap;html=1;aspect=fixed;strokeWidth=2;fontFamily=Comic Sans MS;spacingBottom=4;spacingRight=2;strokeColor=#b85450;rounded=1;shadow=0;glass=0;fontSize=12;fillColor=#f8cecc;" parent="1" vertex="1">
          <mxGeometry x="62" y="636" width="27.5" height="27.5" as="geometry" />
        </mxCell>
        <mxCell id="MyjZQWcwXhGRPd_88m82-34" value="Valider le JSON Web Token stockÃ© dans le header &#39;Authorization&#39;" style="text;html=1;strokeColor=none;fillColor=none;align=left;verticalAlign=middle;whiteSpace=wrap;rounded=0;fontFamily=Comic Sans MS;fontColor=#374151;fontSize=10;" parent="1" vertex="1">
          <mxGeometry x="97" y="635" width="313" height="30" as="geometry" />
        </mxCell>
        <mxCell id="MyjZQWcwXhGRPd_88m82-39" value="Recevoir les informations d&#39;un logement" style="text;html=1;align=center;verticalAlign=middle;whiteSpace=wrap;rounded=0;fontFamily=Comic Sans MS;fontSize=14;fillColor=#f5f5f5;fontColor=#333333;strokeColor=#666666;" parent="1" vertex="1">
          <mxGeometry x="184.5" y="80" width="321" height="50" as="geometry" />
        </mxCell>
        <mxCell id="2" value="/housings/1" style="text;html=1;strokeColor=none;fillColor=none;align=center;verticalAlign=middle;whiteSpace=wrap;rounded=0;fontFamily=Comic Sans MS;fontColor=#374151;fontSize=10;shadow=0;" parent="1" vertex="1">
          <mxGeometry x="391" y="410" width="61" height="20" as="geometry" />
        </mxCell>
        <mxCell id="3" value="/rental/api/v1/rentals/housing/1" style="text;html=1;strokeColor=none;fillColor=none;align=center;verticalAlign=middle;whiteSpace=wrap;rounded=0;fontFamily=Comic Sans MS;fontColor=#374151;fontSize=10;shadow=0;" parent="1" vertex="1">
          <mxGeometry x="50" y="440" width="140" height="20" as="geometry" />
        </mxCell>
        <mxCell id="6" value="rentals JSON" style="text;html=1;strokeColor=none;fillColor=none;align=center;verticalAlign=middle;whiteSpace=wrap;rounded=0;fontFamily=Comic Sans MS;fontColor=#374151;fontSize=10;shadow=0;" parent="1" vertex="1">
          <mxGeometry x="441" y="490" width="75" height="20" as="geometry" />
        </mxCell>
        <mxCell id="7" value="6" style="ellipse;whiteSpace=wrap;html=1;aspect=fixed;strokeWidth=2;fontFamily=Comic Sans MS;spacingBottom=4;spacingRight=2;strokeColor=#b85450;rounded=1;shadow=0;glass=0;fontSize=12;fillColor=#f8cecc;" parent="1" vertex="1">
          <mxGeometry x="421" y="490" width="20" height="20" as="geometry" />
        </mxCell>
        <mxCell id="12" value="housing + rentals JSON" style="text;html=1;strokeColor=none;fillColor=none;align=center;verticalAlign=middle;whiteSpace=wrap;rounded=0;fontFamily=Comic Sans MS;fontColor=#374151;fontSize=10;shadow=0;" parent="1" vertex="1">
          <mxGeometry x="209" y="410" width="91" height="20" as="geometry" />
        </mxCell>
        <mxCell id="19" value="housing + rentals JSON" style="text;html=1;strokeColor=none;fillColor=none;align=center;verticalAlign=middle;whiteSpace=wrap;rounded=0;fontFamily=Comic Sans MS;fontColor=#374151;fontSize=10;shadow=0;" parent="1" vertex="1">
          <mxGeometry x="209" y="230" width="91" height="20" as="geometry" />
        </mxCell>
        <mxCell id="21" value="7" style="ellipse;whiteSpace=wrap;html=1;aspect=fixed;strokeWidth=2;fontFamily=Comic Sans MS;spacingBottom=4;spacingRight=2;strokeColor=#b85450;rounded=1;shadow=0;glass=0;fontSize=12;fillColor=#f8cecc;" parent="1" vertex="1">
          <mxGeometry x="300" y="410" width="20" height="20" as="geometry" />
        </mxCell>
        <mxCell id="23" style="edgeStyle=none;html=1;startArrow=classic;startFill=1;endArrow=none;endFill=0;fontFamily=Comic Sans MS;shadow=0;" parent="1" source="22" target="19" edge="1">
          <mxGeometry relative="1" as="geometry" />
        </mxCell>
        <mxCell id="22" value="8" style="ellipse;whiteSpace=wrap;html=1;aspect=fixed;strokeWidth=2;fontFamily=Comic Sans MS;spacingBottom=4;spacingRight=2;strokeColor=#b85450;rounded=1;shadow=0;glass=0;fontSize=12;fillColor=#f8cecc;" parent="1" vertex="1">
          <mxGeometry x="300" y="230" width="20" height="20" as="geometry" />
        </mxCell>
        <mxCell id="24" value="2" style="ellipse;whiteSpace=wrap;html=1;aspect=fixed;strokeWidth=2;fontFamily=Comic Sans MS;spacingBottom=4;spacingRight=2;strokeColor=#b85450;rounded=1;shadow=0;glass=0;fontSize=12;fillColor=#f8cecc;" parent="1" vertex="1">
          <mxGeometry x="331.25" y="290" width="20" height="20" as="geometry" />
        </mxCell>
        <mxCell id="30" value="&lt;div style=&quot;border-color: var(--border-color);&quot;&gt;Le Gateway demande l&#39;information Ã  Housing service.&lt;/div&gt;&lt;br style=&quot;border-color: var(--border-color);&quot;&gt;&lt;b style=&quot;border-color: var(--border-color);&quot;&gt;Note :&lt;/b&gt;&amp;nbsp;Gateway a rÃ©Ã©crire le chemin&amp;nbsp; &#39;&lt;span style=&quot;border-color: var(--border-color); background-color: initial;&quot;&gt;/housing/api/v1/housings/1&#39; en &#39;/housing/1, car ce dernier est exposÃ© par housing service&lt;/span&gt;" style="text;html=1;strokeColor=none;fillColor=none;align=left;verticalAlign=middle;whiteSpace=wrap;rounded=0;fontFamily=Comic Sans MS;fontColor=#374151;fontSize=10;" parent="1" vertex="1">
          <mxGeometry x="97" y="682.93" width="325" height="60" as="geometry" />
        </mxCell>
        <mxCell id="31" value="3" style="ellipse;whiteSpace=wrap;html=1;aspect=fixed;strokeWidth=2;fontFamily=Comic Sans MS;spacingBottom=4;spacingRight=2;strokeColor=#b85450;rounded=1;shadow=0;glass=0;fontSize=12;fillColor=#f8cecc;" parent="1" vertex="1">
          <mxGeometry x="62" y="682.93" width="27.5" height="27.5" as="geometry" />
        </mxCell>
        <mxCell id="33" value="4" style="ellipse;whiteSpace=wrap;html=1;aspect=fixed;strokeWidth=2;fontFamily=Comic Sans MS;spacingBottom=4;spacingRight=2;strokeColor=#b85450;rounded=1;shadow=0;glass=0;fontSize=12;fillColor=#f8cecc;" parent="1" vertex="1">
          <mxGeometry x="62" y="759.8" width="27.5" height="27.5" as="geometry" />
        </mxCell>
        <mxCell id="34" value="&lt;div style=&quot;border-color: var(--border-color);&quot;&gt;Demander les locations du logement &#39;1&#39; au Gateway.&lt;/div&gt;&lt;br style=&quot;border-color: var(--border-color);&quot;&gt;&lt;b style=&quot;border-color: var(--border-color);&quot;&gt;Note :&lt;/b&gt;&amp;nbsp;Housing service ne communique pas directement avec Rental service afin que Gateway puisse vÃ©rifier l&#39;authentification." style="text;html=1;strokeColor=none;fillColor=none;align=left;verticalAlign=middle;whiteSpace=wrap;rounded=0;fontFamily=Comic Sans MS;fontColor=#374151;fontSize=10;" parent="1" vertex="1">
          <mxGeometry x="97" y="759.8" width="310" height="60" as="geometry" />
        </mxCell>
        <mxCell id="38" value="rentals/housing/1" style="text;html=1;strokeColor=none;fillColor=none;align=center;verticalAlign=middle;whiteSpace=wrap;rounded=0;fontFamily=Comic Sans MS;fontColor=#374151;fontSize=10;shadow=0;" parent="1" vertex="1">
          <mxGeometry x="468.5" y="390" width="140" height="20" as="geometry" />
        </mxCell>
        <mxCell id="40" style="edgeStyle=none;html=1;fontFamily=Comic Sans MS;fontSize=6;startArrow=none;startFill=0;endArrow=classic;endFill=1;shadow=0;" parent="1" source="39" target="38" edge="1">
          <mxGeometry relative="1" as="geometry" />
        </mxCell>
        <mxCell id="39" value="5" style="ellipse;whiteSpace=wrap;html=1;aspect=fixed;strokeWidth=2;fontFamily=Comic Sans MS;spacingBottom=4;spacingRight=2;strokeColor=#b85450;rounded=1;shadow=0;glass=0;fontSize=12;fillColor=#f8cecc;" parent="1" vertex="1">
          <mxGeometry x="468.5" y="390" width="20" height="20" as="geometry" />
        </mxCell>
        <mxCell id="41" value="&lt;div style=&quot;border-color: var(--border-color);&quot;&gt;Demander les locations du logement &#39;1&#39;&lt;/div&gt;" style="text;html=1;strokeColor=none;fillColor=none;align=left;verticalAlign=middle;whiteSpace=wrap;rounded=0;fontFamily=Comic Sans MS;fontColor=#374151;fontSize=10;" parent="1" vertex="1">
          <mxGeometry x="476.25" y="588" width="211" height="21.5" as="geometry" />
        </mxCell>
        <mxCell id="42" value="5" style="ellipse;whiteSpace=wrap;html=1;aspect=fixed;strokeWidth=2;fontFamily=Comic Sans MS;spacingBottom=4;spacingRight=2;strokeColor=#b85450;rounded=1;shadow=0;glass=0;fontSize=12;fillColor=#f8cecc;" parent="1" vertex="1">
          <mxGeometry x="441" y="585" width="27.5" height="27.5" as="geometry" />
        </mxCell>
        <mxCell id="43" value="6" style="ellipse;whiteSpace=wrap;html=1;aspect=fixed;strokeWidth=2;fontFamily=Comic Sans MS;spacingBottom=4;spacingRight=2;strokeColor=#b85450;rounded=1;shadow=0;glass=0;fontSize=12;fillColor=#f8cecc;" parent="1" vertex="1">
          <mxGeometry x="441" y="632.3699999999999" width="27.5" height="27.5" as="geometry" />
        </mxCell>
        <mxCell id="44" value="&lt;div style=&quot;border-color: var(--border-color);&quot;&gt;Renvoyer les locations demandÃ©es&lt;/div&gt;" style="text;html=1;strokeColor=none;fillColor=none;align=left;verticalAlign=middle;whiteSpace=wrap;rounded=0;fontFamily=Comic Sans MS;fontColor=#374151;fontSize=10;" parent="1" vertex="1">
          <mxGeometry x="476.25" y="635.3799999999999" width="181" height="21.5" as="geometry" />
        </mxCell>
        <mxCell id="45" value="&lt;div style=&quot;border-color: var(--border-color);&quot;&gt;Renvoyer les informations du logement ainsi que ses locations&lt;/div&gt;" style="text;html=1;strokeColor=none;fillColor=none;align=left;verticalAlign=middle;whiteSpace=wrap;rounded=0;fontFamily=Comic Sans MS;fontColor=#374151;fontSize=10;" parent="1" vertex="1">
          <mxGeometry x="476.25" y="686.8699999999999" width="301" height="21.5" as="geometry" />
        </mxCell>
        <mxCell id="46" value="7" style="ellipse;whiteSpace=wrap;html=1;aspect=fixed;strokeWidth=2;fontFamily=Comic Sans MS;spacingBottom=4;spacingRight=2;strokeColor=#b85450;rounded=1;shadow=0;glass=0;fontSize=12;fillColor=#f8cecc;" parent="1" vertex="1">
          <mxGeometry x="441" y="683.8699999999999" width="27.5" height="27.5" as="geometry" />
        </mxCell>
        <mxCell id="47" value="&lt;div style=&quot;border-color: var(--border-color);&quot;&gt;Renvoyer les informations du logement ainsi que ses locations&lt;/div&gt;" style="text;html=1;strokeColor=none;fillColor=none;align=left;verticalAlign=middle;whiteSpace=wrap;rounded=0;fontFamily=Comic Sans MS;fontColor=#374151;fontSize=10;" parent="1" vertex="1">
          <mxGeometry x="476.25" y="734.8699999999999" width="301" height="21.5" as="geometry" />
        </mxCell>
        <mxCell id="48" value="8" style="ellipse;whiteSpace=wrap;html=1;aspect=fixed;strokeWidth=2;fontFamily=Comic Sans MS;spacingBottom=4;spacingRight=2;strokeColor=#b85450;rounded=1;shadow=0;glass=0;fontSize=12;fillColor=#f8cecc;" parent="1" vertex="1">
          <mxGeometry x="441" y="734.8699999999999" width="27.5" height="27.5" as="geometry" />
        </mxCell>
        <mxCell id="k3yplP2Bq4ahlFQJKOPg-48" style="edgeStyle=orthogonalEdgeStyle;rounded=0;orthogonalLoop=1;jettySize=auto;html=1;strokeColor=#374151;exitX=1;exitY=0.25;exitDx=0;exitDy=0;entryX=0;entryY=0.25;entryDx=0;entryDy=0;fontFamily=Comic Sans MS;shadow=0;" parent="1" source="k3yplP2Bq4ahlFQJKOPg-53" target="k3yplP2Bq4ahlFQJKOPg-56" edge="1">
          <mxGeometry relative="1" as="geometry">
            <mxPoint x="1430" y="300" as="targetPoint" />
          </mxGeometry>
        </mxCell>
        <mxCell id="k3yplP2Bq4ahlFQJKOPg-50" style="edgeStyle=none;html=1;startArrow=none;startFill=0;endArrow=classic;endFill=1;exitX=0.304;exitY=0.019;exitDx=0;exitDy=0;exitPerimeter=0;fontFamily=Comic Sans MS;shadow=0;" parent="1" source="k3yplP2Bq4ahlFQJKOPg-53" edge="1">
          <mxGeometry relative="1" as="geometry">
            <mxPoint x="1287" y="200" as="targetPoint" />
          </mxGeometry>
        </mxCell>
        <mxCell id="k3yplP2Bq4ahlFQJKOPg-51" style="edgeStyle=none;html=1;startArrow=classic;startFill=1;endArrow=none;endFill=0;exitX=0.554;exitY=0.001;exitDx=0;exitDy=0;exitPerimeter=0;fontFamily=Comic Sans MS;shadow=0;" parent="1" source="k3yplP2Bq4ahlFQJKOPg-53" edge="1">
          <mxGeometry relative="1" as="geometry">
            <mxPoint x="1310" y="200" as="targetPoint" />
          </mxGeometry>
        </mxCell>
        <mxCell id="k3yplP2Bq4ahlFQJKOPg-53" value="API Gateway" style="rounded=1;whiteSpace=wrap;html=1;fontFamily=Comic Sans MS;fillColor=#dae8fc;strokeColor=#6c8ebf;fontColor=#374151;glass=0;shadow=1;" parent="1" vertex="1">
          <mxGeometry x="1260" y="280" width="90" height="80" as="geometry" />
        </mxCell>
        <mxCell id="k3yplP2Bq4ahlFQJKOPg-54" value="/auth/api/v1/login" style="text;html=1;strokeColor=none;fillColor=none;align=left;verticalAlign=middle;whiteSpace=wrap;rounded=0;fontFamily=Comic Sans MS;fontColor=#374151;fontSize=10;shadow=0;" parent="1" vertex="1">
          <mxGeometry x="1341" y="230" width="150" height="20" as="geometry" />
        </mxCell>
        <mxCell id="k3yplP2Bq4ahlFQJKOPg-55" style="edgeStyle=orthogonalEdgeStyle;shape=connector;rounded=0;orthogonalLoop=1;jettySize=auto;html=1;entryX=0.988;entryY=0.682;entryDx=0;entryDy=0;entryPerimeter=0;labelBackgroundColor=default;strokeColor=#374151;fontFamily=Comic Sans MS;fontSize=12;fontColor=#374151;endArrow=classic;exitX=-0.018;exitY=0.674;exitDx=0;exitDy=0;exitPerimeter=0;shadow=0;" parent="1" source="k3yplP2Bq4ahlFQJKOPg-56" target="k3yplP2Bq4ahlFQJKOPg-53" edge="1">
          <mxGeometry relative="1" as="geometry" />
        </mxCell>
        <mxCell id="k3yplP2Bq4ahlFQJKOPg-56" value="&lt;div&gt;Auth service&lt;/div&gt;" style="rounded=1;whiteSpace=wrap;html=1;fontFamily=Comic Sans MS;fillColor=#FAFAFA;fontColor=#374151;strokeColor=#d1d5db;gradientColor=none;shadow=1;glass=0;" parent="1" vertex="1">
          <mxGeometry x="1470.75" y="280" width="89.25" height="80" as="geometry" />
        </mxCell>
        <mxCell id="k3yplP2Bq4ahlFQJKOPg-60" value="&lt;div style=&quot;font-size: 10px;&quot;&gt;/login&lt;br style=&quot;font-size: 10px;&quot;&gt;&lt;/div&gt;" style="text;html=1;strokeColor=none;fillColor=none;align=left;verticalAlign=middle;whiteSpace=wrap;rounded=0;fontFamily=Comic Sans MS;fontColor=#374151;fontSize=10;shadow=0;" parent="1" vertex="1">
          <mxGeometry x="1391" y="265" width="90" height="30" as="geometry" />
        </mxCell>
        <mxCell id="k3yplP2Bq4ahlFQJKOPg-61" value="" style="sketch=0;outlineConnect=0;fontColor=#232F3E;gradientColor=none;fillColor=#232F3D;strokeColor=none;dashed=0;verticalLabelPosition=bottom;verticalAlign=top;align=center;html=1;fontSize=12;fontStyle=0;aspect=fixed;pointerEvents=1;shape=mxgraph.aws4.user;rounded=1;shadow=1;glass=0;fontFamily=Comic Sans MS;" parent="1" vertex="1">
          <mxGeometry x="1278.5" y="150" width="42.5" height="42.5" as="geometry" />
        </mxCell>
        <mxCell id="k3yplP2Bq4ahlFQJKOPg-62" value="JWT" style="text;html=1;strokeColor=none;fillColor=none;align=left;verticalAlign=middle;whiteSpace=wrap;rounded=0;fontFamily=Comic Sans MS;fontColor=#374151;fontSize=10;shadow=0;" parent="1" vertex="1">
          <mxGeometry x="1391" y="305" width="90" height="30" as="geometry" />
        </mxCell>
        <mxCell id="k3yplP2Bq4ahlFQJKOPg-65" value="1" style="ellipse;whiteSpace=wrap;html=1;aspect=fixed;strokeWidth=2;fontFamily=Comic Sans MS;spacingBottom=4;spacingRight=2;strokeColor=#b85450;rounded=1;shadow=0;glass=0;fontSize=12;fillColor=#f8cecc;" parent="1" vertex="1">
          <mxGeometry x="1321" y="230" width="20" height="20" as="geometry" />
        </mxCell>
        <mxCell id="k3yplP2Bq4ahlFQJKOPg-66" value="3" style="ellipse;whiteSpace=wrap;html=1;aspect=fixed;strokeWidth=2;fontFamily=Comic Sans MS;spacingBottom=4;spacingRight=2;strokeColor=#b85450;rounded=1;shadow=0;glass=0;fontSize=12;fillColor=#f8cecc;" parent="1" vertex="1">
          <mxGeometry x="1371" y="270" width="20" height="20" as="geometry" />
        </mxCell>
        <mxCell id="k3yplP2Bq4ahlFQJKOPg-68" value="4" style="ellipse;whiteSpace=wrap;html=1;aspect=fixed;strokeWidth=2;fontFamily=Comic Sans MS;spacingBottom=4;spacingRight=2;strokeColor=#b85450;rounded=1;shadow=0;glass=0;fontSize=12;fillColor=#f8cecc;" parent="1" vertex="1">
          <mxGeometry x="1371" y="310" width="20" height="20" as="geometry" />
        </mxCell>
        <mxCell id="k3yplP2Bq4ahlFQJKOPg-70" value="1" style="ellipse;whiteSpace=wrap;html=1;aspect=fixed;strokeWidth=2;fontFamily=Comic Sans MS;spacingBottom=4;spacingRight=2;strokeColor=#b85450;rounded=1;shadow=0;glass=0;fontSize=12;fillColor=#f8cecc;" parent="1" vertex="1">
          <mxGeometry x="1243" y="392.5" width="27.5" height="27.5" as="geometry" />
        </mxCell>
        <mxCell id="k3yplP2Bq4ahlFQJKOPg-71" value="Demande de connexion" style="text;html=1;strokeColor=none;fillColor=none;align=left;verticalAlign=middle;whiteSpace=wrap;rounded=0;fontFamily=Comic Sans MS;fontColor=#374151;fontSize=10;" parent="1" vertex="1">
          <mxGeometry x="1278" y="390" width="315" height="30" as="geometry" />
        </mxCell>
        <mxCell id="k3yplP2Bq4ahlFQJKOPg-72" value="2" style="ellipse;whiteSpace=wrap;html=1;aspect=fixed;strokeWidth=2;fontFamily=Comic Sans MS;spacingBottom=4;spacingRight=2;strokeColor=#b85450;rounded=1;shadow=0;glass=0;fontSize=12;fillColor=#f8cecc;" parent="1" vertex="1">
          <mxGeometry x="1243" y="441" width="27.5" height="27.5" as="geometry" />
        </mxCell>
        <mxCell id="k3yplP2Bq4ahlFQJKOPg-73" value="L&#39;API Gateway ne vÃ©rifie pas le JWT car Auth service est publique" style="text;html=1;strokeColor=none;fillColor=none;align=left;verticalAlign=middle;whiteSpace=wrap;rounded=0;fontFamily=Comic Sans MS;fontColor=#374151;fontSize=10;" parent="1" vertex="1">
          <mxGeometry x="1278" y="440" width="313" height="30" as="geometry" />
        </mxCell>
        <mxCell id="k3yplP2Bq4ahlFQJKOPg-74" value="3" style="ellipse;whiteSpace=wrap;html=1;aspect=fixed;strokeWidth=2;fontFamily=Comic Sans MS;spacingBottom=4;spacingRight=2;strokeColor=#b85450;rounded=1;shadow=0;glass=0;fontSize=12;fillColor=#f8cecc;" parent="1" vertex="1">
          <mxGeometry x="1243" y="491" width="27.5" height="27.5" as="geometry" />
        </mxCell>
        <mxCell id="k3yplP2Bq4ahlFQJKOPg-75" value="&lt;div&gt;Demande de connexion&lt;/div&gt;" style="text;html=1;strokeColor=none;fillColor=none;align=left;verticalAlign=middle;whiteSpace=wrap;rounded=0;fontFamily=Comic Sans MS;fontColor=#374151;fontSize=10;horizontal=1;" parent="1" vertex="1">
          <mxGeometry x="1276" y="483.5" width="306.5" height="42.5" as="geometry" />
        </mxCell>
        <mxCell id="k3yplP2Bq4ahlFQJKOPg-76" value="4" style="ellipse;whiteSpace=wrap;html=1;aspect=fixed;strokeWidth=2;fontFamily=Comic Sans MS;spacingBottom=4;spacingRight=2;strokeColor=#b85450;rounded=1;shadow=0;glass=0;fontSize=12;fillColor=#f8cecc;" parent="1" vertex="1">
          <mxGeometry x="1243" y="538.37" width="27.5" height="27.5" as="geometry" />
        </mxCell>
        <mxCell id="k3yplP2Bq4ahlFQJKOPg-77" value="&lt;div&gt;&lt;span style=&quot;background-color: initial;&quot;&gt;Si le token est invalide, la requÃªte renvoie 401&amp;nbsp;unauthorized.&lt;/span&gt;&lt;br&gt;&lt;/div&gt;&lt;div&gt;Dans le cas contraire, le JWT en string est renvoyÃ©&lt;br&gt;&lt;/div&gt;" style="text;html=1;strokeColor=none;fillColor=none;align=left;verticalAlign=middle;whiteSpace=wrap;rounded=0;fontFamily=Comic Sans MS;fontColor=#374151;fontSize=10;" parent="1" vertex="1">
          <mxGeometry x="1276" y="530" width="339" height="44.25" as="geometry" />
        </mxCell>
        <mxCell id="k3yplP2Bq4ahlFQJKOPg-78" value="Se connecter" style="text;html=1;align=center;verticalAlign=middle;whiteSpace=wrap;rounded=0;fontFamily=Comic Sans MS;fontSize=14;fillColor=#f5f5f5;fontColor=#333333;strokeColor=#666666;" parent="1" vertex="1">
          <mxGeometry x="1228" y="80" width="321" height="50" as="geometry" />
        </mxCell>
        <mxCell id="k3yplP2Bq4ahlFQJKOPg-84" value="JWT" style="text;html=1;strokeColor=none;fillColor=none;align=right;verticalAlign=middle;whiteSpace=wrap;rounded=0;fontFamily=Comic Sans MS;fontColor=#374151;fontSize=10;shadow=0;" parent="1" vertex="1">
          <mxGeometry x="1198.5" y="230" width="61" height="20" as="geometry" />
        </mxCell>
        <mxCell id="k3yplP2Bq4ahlFQJKOPg-87" value="5" style="ellipse;whiteSpace=wrap;html=1;aspect=fixed;strokeWidth=2;fontFamily=Comic Sans MS;spacingBottom=4;spacingRight=2;strokeColor=#b85450;rounded=1;shadow=0;glass=0;fontSize=12;fillColor=#f8cecc;" parent="1" vertex="1">
          <mxGeometry x="1260" y="230" width="20" height="20" as="geometry" />
        </mxCell>
        <mxCell id="k3yplP2Bq4ahlFQJKOPg-88" value="2" style="ellipse;whiteSpace=wrap;html=1;aspect=fixed;strokeWidth=2;fontFamily=Comic Sans MS;spacingBottom=4;spacingRight=2;strokeColor=#b85450;rounded=1;shadow=0;glass=0;fontSize=12;fillColor=#f8cecc;" parent="1" vertex="1">
          <mxGeometry x="1289.75" y="290" width="20" height="20" as="geometry" />
        </mxCell>
        <mxCell id="k3yplP2Bq4ahlFQJKOPg-89" value="&lt;div style=&quot;border-color: var(--border-color);&quot;&gt;Le JWT en string est renvoyÃ©&lt;br&gt;&lt;/div&gt;" style="text;html=1;strokeColor=none;fillColor=none;align=left;verticalAlign=middle;whiteSpace=wrap;rounded=0;fontFamily=Comic Sans MS;fontColor=#374151;fontSize=10;" parent="1" vertex="1">
          <mxGeometry x="1280" y="590.75" width="325" height="22" as="geometry" />
        </mxCell>
        <mxCell id="k3yplP2Bq4ahlFQJKOPg-90" value="5" style="ellipse;whiteSpace=wrap;html=1;aspect=fixed;strokeWidth=2;fontFamily=Comic Sans MS;spacingBottom=4;spacingRight=2;strokeColor=#b85450;rounded=1;shadow=0;glass=0;fontSize=12;fillColor=#f8cecc;" parent="1" vertex="1">
          <mxGeometry x="1243" y="588" width="27.5" height="27.5" as="geometry" />
        </mxCell>
        <mxCell id="49" style="edgeStyle=orthogonalEdgeStyle;rounded=0;orthogonalLoop=1;jettySize=auto;html=1;entryX=0;entryY=0.5;entryDx=0;entryDy=0;fontFamily=Comic Sans MS;fontColor=#374151;" parent="1" source="50" target="53" edge="1">
          <mxGeometry relative="1" as="geometry" />
        </mxCell>
        <mxCell id="50" value="Gateway" style="rounded=1;whiteSpace=wrap;html=1;fontFamily=Comic Sans MS;fillColor=#dae8fc;strokeColor=#6c8ebf;shadow=1;fontColor=#374151;" parent="1" vertex="1">
          <mxGeometry x="215.5" y="1010" width="80" height="40" as="geometry" />
        </mxCell>
        <mxCell id="51" value="" style="endArrow=classic;html=1;rounded=0;fontFamily=Comic Sans MS;fontColor=#374151;" parent="1" edge="1">
          <mxGeometry width="50" height="50" relative="1" as="geometry">
            <mxPoint x="40" y="1030" as="sourcePoint" />
            <mxPoint x="215.5" y="1030" as="targetPoint" />
          </mxGeometry>
        </mxCell>
        <mxCell id="52" value="localhost:8080/rental/api/v1/&lt;font color=&quot;#ea6b66&quot; style=&quot;font-size: 9px;&quot;&gt;rentals/2&lt;/font&gt;" style="text;html=1;strokeColor=none;fillColor=none;align=center;verticalAlign=middle;whiteSpace=wrap;rounded=0;fontFamily=Comic Sans MS;fontSize=9;fontColor=#374151;" parent="1" vertex="1">
          <mxGeometry x="35.5" y="1005" width="180" height="20" as="geometry" />
        </mxCell>
        <mxCell id="53" value="Rental service" style="rounded=1;whiteSpace=wrap;html=1;fontFamily=Comic Sans MS;strokeColor=#D1D5DB;fillColor=#FAFAFA;shadow=1;glass=0;fontColor=#374151;" parent="1" vertex="1">
          <mxGeometry x="415.5" y="1010" width="90" height="40" as="geometry" />
        </mxCell>
        <mxCell id="54" value="localhost:8082/&lt;font color=&quot;#ea6b66&quot; style=&quot;font-size: 9px;&quot;&gt;rentals/2&lt;/font&gt;" style="text;html=1;strokeColor=none;fillColor=none;align=center;verticalAlign=middle;whiteSpace=wrap;rounded=0;fontFamily=Comic Sans MS;fontSize=9;fontColor=#374151;" parent="1" vertex="1">
          <mxGeometry x="265.5" y="1000" width="180" height="30" as="geometry" />
        </mxCell>
      </root>
    </mxGraphModel>
  </diagram>
</mxfile>
